{"title":"Kya Yehi Pyaar Hai (2002) BluRay 720p x264 AAC TaRa.mkv","uid":15419701,"size":1861173787,"categoryP":"video","categoryS":"hd___movies","magnet":"?xt=urn:btih:b7fdf2809b046b965303ccd17e144a023acfc05b&amp;dn=Kya+Yehi+Pyaar+Hai+%282002%29+BluRay+720p+x264+AAC+TaRa.mkv&amp;tr=udp%3A%2F%2Ftracker.leechers-paradise.org%3A6969&amp;tr=udp%3A%2F%2Fzer0day.ch%3A1337&amp;tr=udp%3A%2F%2Fopen.demonii.com%3A1337&amp;tr=udp%3A%2F%2Ftracker.coppersurfer.tk%3A6969&amp;tr=udp%3A%2F%2Fexodus.desync.com%3A6969","seeders":0,"leechers":1,"uploader":"MdTaRa","files":1,"time":1469622693,"description":"========================================================================\r\nGeneral\r\nComplete name               : Kya Yehi Pyaar Hai (2002) BluRay 720p x264 AAC TaRa.mkv\r\nFormat                      : Matroska\r\nFormat version              : Version 4 / Version 2\r\nFile size                   : 1.73 GiB\r\nDuration                    : 2h 25mn\r\nOverall bit rate mode       : Variable\r\nOverall bit rate            : 1 700 Kbps\r\n==========================================================================\r\nVideo\r\nID                          : 1\r\nFormat                      : AVC\r\nFormat/Info                 : Advanced Video Codec\r\nFormat profile              :   \r\nFormat settings, CABAC      : Yes\r\nFormat settings, ReFrames   : 3 frames\r\nCodec ID                    : V_MPEG4/ISO/AVC\r\nDuration                    : 2h 25mn\r\nBit rate mode               : Variable\r\nBit rate                    : 1 602 Kbps\r\nMaximum bit rate            : 40.0 Mbps\r\nWidth                       : 1 280 pixels\r\nHeight                      : 544 pixels\r\nDisplay aspect ratio        : 2.35:1\r\nFrame rate mode             : Constant\r\nFrame rate                  : 25.000 fps\r\nColor space                 : YUV\r\nChroma subsampling          : 4:2:0\r\nBit depth                   : 8 bits\r\nScan type                   : Progressive\r\nBits/(Pixel*Frame)          : 0.092\r\nStream size                 : 1.63 GiB (94%)\r\nTitle                       : .....::::: TaRa :::::.....\r\nLanguage                    : Hindi\r\nDefault                     : Yes\r\nForced                      : No\r\n=======================================================================\r\nAudio\r\nID                          : 2\r\nFormat                      : AAC\r\nFormat/Info                 : Advanced Audio Codec\r\nFormat profile              : LC\r\nCodec ID                    : A_AAC\r\nDuration                    : 2h 25mn\r\nBit rate                    : 96.0 Kbps\r\nChannel(s)                  : 2 channels\r\nChannel positions           : Front: L R\r\nSampling rate               : 48.0 KHz\r\nFrame rate                  : 46.875 fps (1024 spf)\r\nCompression mode            : Lossy\r\nDelay relative to video     : 9ms\r\nStream size                 : 100 MiB (6%)\r\nTitle                       : .....::::: TaRa :::::.....\r\nLanguage                    : Hindi\r\nDefault                     : Yes\r\nForced                      : No\r\n============================================================================ \nhttp://imgur.com/FNl81gL \nhttp://imgur.com/8hDewdr","torrent":{"xt":"urn:btih:b7fdf2809b046b965303ccd17e144a023acfc05b","amp;dn":"Kya+Yehi+Pyaar+Hai+%282002%29+BluRay+720p+x264+AAC+TaRa.mkv","amp;tr":["udp%3A%2F%2Ftracker.leechers-paradise.org%3A6969","udp%3A%2F%2Fzer0day.ch%3A1337","udp%3A%2F%2Fopen.demonii.com%3A1337","udp%3A%2F%2Ftracker.coppersurfer.tk%3A6969","udp%3A%2F%2Fexodus.desync.com%3A6969"],"infoHash":"b7fdf2809b046b965303ccd17e144a023acfc05b","infoHashBuffer":{"type":"Buffer","data":[183,253,242,128,155,4,107,150,83,3,204,209,126,20,74,2,58,207,192,91]},"announce":[],"urlList":[]}}